# xmcd
# 
# Track frame offsets:
#     150
#     12387
#     26871
#     44767
#     53167
#     73539
#     96227
#     113130
#     130113
#     145391
#     163433
#     181362
#     239624
#     257262
#     277626
#     297183
# 
# Disc length: 4132
# 
# Revision: 0
# Processed by: cddbd v1.5.2PL0 Copyright (c) Steve Scherf et al.
# Submitted via: fre:ac v1.1beta1pre4
# 
DISCID=ee102210
DTITLE=LIGHTNING SEEDS - B-SIDES CD2
DYEAR=0
DGENRE=
TTITLE0=S.F. SORROW IN BORN
TTITLE1=PORPOISE SONG
TTITLE2=WHY WHY WHY  7INCH
TTITLE3=TELLING TALES 1997
TTITLE4=WEIRDAWAY
TTITLE5=BLUE
TTITLE6=BE MY BABY
TTITLE7=THERE LIONS  ORG. VERSION
TTITLE8=TOUT E ST POSSIBLE
TTITLE9=THREE LIONS 1998
TTITLE10=EVERYDAY and EVERYNIGHT
TTITLE11=MIX AND MATCH
TTITLE12=LUCKY YOU  - LIVE
TTITLE13=THE LIFE OF RILEY - LIVE
TTITLE14=PURE  - LIVE
TTITLE15=HERE TODAY - LIVE
EXTD=
EXTT0=
EXTT1=
EXTT2=
EXTT3=
EXTT4=
EXTT5=
EXTT6=
EXTT7=
EXTT8=
EXTT9=
EXTT10=
EXTT11=
EXTT12=
EXTT13=
EXTT14=
EXTT15=
PLAYORDER=
